<svg xmlns="http://www.w3.org/2000/svg" width="47" height="48" viewBox="0 0 47 48" fill="none">
  <mask id="mask0_241_1597" style="mask-type:luminance" maskUnits="userSpaceOnUse" x="0" y="0" width="47" height="48">
    <path d="M41.6423 45.9236C43.7658 45.9236 45.4872 44.2022 45.4872 42.0787V5.87261C45.4872 3.74913 43.7658 2.02771 41.6423 2.02771H23.5393H5.43621C3.31273 2.02771 1.59131 3.74913 1.59131 5.87261V19.5861V42.0787C1.59131 44.2022 3.31273 45.9236 5.43621 45.9236H41.6423Z" stroke="white" stroke-width="3" stroke-linecap="round" stroke-linejoin="round"/>
    <path d="M9.79688 11.734L20.7106 22.6478C22.2727 24.2099 24.8054 24.2099 26.3675 22.6478L37.2813 11.734" stroke="white" stroke-width="3" stroke-linecap="round"/>
    <path d="M9.79688 23.402L20.7106 34.3158C22.2727 35.8779 24.8054 35.8779 26.3675 34.3158L37.2813 23.402" stroke="white" stroke-width="3" stroke-linecap="round"/>
  </mask>
  <g mask="url(#mask0_241_1597)">
    <path d="M-2.59033 -2.36194H50.0848V50.3132H-2.59033V-2.36194Z" fill="white"/>
  </g>
</svg>