<svg xmlns="http://www.w3.org/2000/svg" width="112" height="112" viewBox="0 0 112 112" fill="none">
<g clip-path="url(#clip0_241_1605)">
<path fill-rule="evenodd" clip-rule="evenodd" d="M65.7285 51.9473C56.5949 53.9424 59.5194 68.3558 68.181 66.4774C71.4948 65.7621 74.1663 62.098 73.4948 57.8645C72.9644 54.5166 69.6992 51.0763 65.7236 51.9473H65.7285Z" fill="#89DCFF"/>
<path fill-rule="evenodd" clip-rule="evenodd" d="M56.3854 0.498291C25.7535 0.498291 0.921875 25.3299 0.921875 55.9619C0.921875 86.5938 25.7535 111.425 56.3854 111.425C87.0174 111.425 111.849 86.5938 111.849 55.9619C111.849 25.3299 87.0174 0.498291 56.3854 0.498291ZM91.8105 71.3922C91.5915 75.4992 91.8738 75.0174 90.0052 76.1512C86.5065 78.2728 86.0442 78.8762 81.874 80.8908C79.582 82.0003 75.1588 83.9905 72.609 84.482C71.6065 83.7423 69.1492 79.7765 68.5652 78.1755C69.2806 77.5381 72.7549 76.4335 74.643 75.1245C73.0712 72.7498 71.9861 75.0028 65.8305 76.5502C62.1469 77.4748 58.5557 78.0441 54.5801 78.0636C48.7895 78.0928 43.685 77.0709 38.4053 75.1585C35.6559 74.161 36.1912 73.4992 33.9626 74.8082C34.673 76.3897 38.7994 77.0563 40.0257 78.1755C39.5731 79.937 37.1206 83.2752 36.089 84.5014C33.4467 84.0635 28.2011 81.6986 25.9676 80.5696C21.8168 78.4724 18.902 76.0831 17.1357 75.1731C15.9289 60.5311 18.5955 49.5192 25.2863 37.6459C25.8751 36.5997 26.4591 35.7384 27.0527 34.7263C27.734 33.5633 27.9821 33.0378 29.4274 32.4198C32.9553 30.9016 39.7191 28.561 43.865 28.2787C44.4392 29.6899 45.1594 30.4879 45.6314 32.1667C48.6289 31.9624 51.2371 31.5439 54.3466 31.5439C57.3149 31.5439 60.2783 32.1132 63.0179 32.1278L64.8038 28.2739C68.4582 28.5707 76.1223 30.848 79.6113 32.5414C80.9835 33.2081 81.7669 34.9501 82.5358 36.1715C88.959 46.327 92.4723 58.9691 91.8105 71.3825V71.3922Z" fill="#89DCFF"/>
<path fill-rule="evenodd" clip-rule="evenodd" d="M41.018 51.8646C37.3587 52.4145 34.6824 55.7769 35.1885 60.1515C36.3174 69.908 49.6699 67.947 48.5799 58.2732C48.1663 54.6188 45.0617 51.2563 41.018 51.8646Z" fill="#89DCFF"/>
</g>
<defs>
<clipPath id="clip0_241_1605">
<rect width="110.927" height="110.927" fill="white" transform="translate(0.921875 0.498291)"/>
</clipPath>
</defs>
</svg>