<svg xmlns="http://www.w3.org/2000/svg" width="39" height="39" viewBox="0 0 39 39" fill="none">
  <g clip-path="url(#clip0_241_1637)">
    <path d="M18.3899 0.565308C8.67013 0.565308 0.762695 8.51171 0.762695 18.2792C0.762695 28.0467 8.67013 35.9933 18.3899 35.9933C19.9273 35.9933 21.4188 35.7935 22.8412 35.4201L22.5267 33.8443C22.5067 33.8498 22.4872 33.8566 22.4672 33.8619C22.4851 33.8463 22.5026 33.8288 22.5206 33.813L22.2442 32.4279C21.2593 33.4597 20.1557 34.1113 18.9835 34.2764V30.5027H21.8602L21.6222 29.3101H18.9835V22.8721H20.3378L20.0998 21.6795H18.9835V14.8798H26.3999C26.5165 15.9338 26.5801 17.0254 26.5849 18.1445L27.7664 18.8492C27.7698 18.6597 27.7739 18.4708 27.7739 18.2797C27.7739 17.1124 27.7125 15.9765 27.5975 14.88H34.061C34.2964 15.9767 34.4234 17.1133 34.4234 18.2797C34.4234 19.446 34.2964 20.5831 34.061 21.6797H32.512L35.2827 23.3323C35.7581 21.73 36.0172 20.035 36.0172 18.2797C36.0172 8.51171 28.1095 0.565308 18.3899 0.565308ZM14.3123 2.69676C13.3387 3.5397 12.4619 4.67885 11.7145 6.05574H7.96154C9.77415 4.49181 11.9349 3.32548 14.312 2.69676H14.3123ZM6.72253 7.24878H11.1259C10.298 9.0975 9.6812 11.2815 9.33213 13.6868H3.02368C3.74636 11.249 5.0306 9.05479 6.7223 7.24878H6.72253ZM2.35668 18.2792C2.35668 17.1129 2.48372 15.9762 2.71916 14.8796H9.1826C9.0676 15.9762 9.00624 17.112 9.00624 18.2792C9.00624 19.4464 9.0676 20.5826 9.18282 21.6793H2.71893C2.48349 20.5826 2.35645 19.4458 2.35645 18.2792H2.35668ZM3.02391 22.8719H9.33213C9.6812 25.2771 10.298 27.4614 11.1259 29.3098H6.72253C5.0306 27.5036 3.74659 25.3094 3.02368 22.8719H3.02391ZM7.96177 30.5027H11.7147C12.4622 31.8798 13.3389 33.0189 14.3127 33.8621C11.9354 33.2334 9.77437 32.0668 7.96177 30.5027ZM17.7963 34.2764C16.0085 34.0245 14.3782 32.6471 13.0892 30.5027H17.7963V34.2764ZM17.7963 29.3101H12.4462C11.5727 27.5077 10.9102 25.3119 10.5371 22.8721H17.7963V29.3101ZM17.7963 21.6793H10.38C10.2587 20.5826 10.193 19.4458 10.193 18.2792C10.193 17.1126 10.2587 15.976 10.38 14.8796H17.7963V21.6793ZM17.7963 13.6868H10.5371C10.9102 11.2468 11.5727 9.05091 12.4462 7.24878H17.7963V13.6868ZM17.7963 6.05551H13.0894C14.3782 3.91127 16.0085 2.53392 17.7963 2.28202V6.05551ZM28.8181 6.05551H25.0652C24.318 4.67862 23.4412 3.53947 22.4674 2.69653C24.8445 3.32525 27.0053 4.49181 28.8179 6.05551H28.8181ZM18.9835 2.28202C20.7714 2.53392 22.4017 3.91104 23.6905 6.05551H18.9835V2.28225V2.28202ZM18.9835 13.6865V7.24855H24.3336C25.2072 9.05091 25.8697 11.2468 26.2428 13.6865H18.9835ZM27.4478 13.6865C27.0987 11.2812 26.4819 9.09704 25.654 7.24855H30.0574C31.7493 9.05479 33.0333 11.249 33.756 13.6865H27.4475H27.4478Z" fill="white"/>
    <path d="M38.7623 27.7845L20.8721 17.1138L25.2818 37.5454L29.0836 32.4073L33.499 38.5653L37.1242 35.9403L32.709 29.7821L38.7623 27.7845Z" fill="white"/>
  </g>
  <defs>
    <clipPath id="clip0_241_1637">
      <rect width="38" height="38" fill="white" transform="translate(0.762695 0.565308)"/>
    </clipPath>
  </defs>
</svg>