<svg xmlns="http://www.w3.org/2000/svg" width="111" height="112" viewBox="0 0 111 112" fill="none">
<g clip-path="url(#clip0_241_1611)">
<path fill-rule="evenodd" clip-rule="evenodd" d="M110.927 55.9619C110.927 25.3306 86.0949 0.498291 55.4636 0.498291C24.8323 0.498291 0 25.3306 0 55.9619C0 86.5932 24.8323 111.425 55.4636 111.425C86.0949 111.425 110.927 86.5932 110.927 55.9619ZM67.1182 44.4411C67.5967 43.8699 67.7511 43.4119 67.2622 42.6658H67.2571C65.9655 42.4401 65.0372 43.0973 64.2294 43.6691C64.0429 43.8012 63.8628 43.9287 63.6861 44.0397L57.6967 47.9194C56.9661 48.3977 56.2547 48.8733 55.5324 49.3562C55.2679 49.533 55.0019 49.7108 54.7329 49.8902L42.9085 57.8863C41.1436 59.147 38.612 60.9222 36.4869 61.4161C33.9398 62.0079 30.3071 61.0405 27.9762 60.3613C27.5566 60.2384 27.1368 60.1176 26.7179 59.997C24.5938 59.3856 22.4904 58.7801 20.5306 57.9378C19.3729 57.4386 18.1225 56.5022 18.776 55.1592C19.6007 53.4639 23.8073 51.7754 26.6712 50.6258C27.3451 50.3553 27.9447 50.1146 28.4084 49.9107C35.3558 46.8536 42.4157 43.8537 49.4639 40.8588C53.9941 38.9338 58.5194 37.0109 63.0069 35.0762C64.2571 34.536 65.5269 34.0335 66.7983 33.5304C67.8764 33.1037 68.9558 32.6766 70.0254 32.2256L70.08 32.2025C72.3292 31.2517 74.7844 30.2137 77.2548 29.5859C80.2341 28.8244 83.2699 28.3973 83.4346 32.3542C83.6044 36.4192 80.5994 54.0941 79.8533 58.4523C79.6508 59.6372 79.4498 60.8226 79.2489 62.0079C78.4953 66.4536 77.7418 70.8983 76.9049 75.3142C75.5156 82.6568 73.4214 84.9157 66.7117 80.7736C66.1061 80.3989 65.5652 80.0032 65.0095 79.5967C64.6114 79.3055 64.2057 79.0088 63.7633 78.7102L51.9543 70.7758C51.5888 70.5331 51.2296 70.3006 50.8814 70.0752C47.4799 67.8735 45.131 66.353 48.2444 62.6562L50.74 60.14L50.8555 60.0354C52.5988 58.4576 54.1471 57.0562 55.8186 55.3444C56.0088 55.1495 56.2155 54.9765 56.4214 54.8041C56.6611 54.6035 56.8997 54.4038 57.1101 54.1712C57.4754 53.7689 58.2807 53.0328 59.0745 52.3071C59.8238 51.6222 60.5629 50.9466 60.9127 50.5694C61.4775 49.9626 62.1861 49.3246 62.9376 48.6481C63.9386 47.747 65.0155 46.7774 65.9295 45.7223C66.1181 45.5044 66.3078 45.3086 66.497 45.1133C66.7054 44.8982 66.9132 44.6838 67.1182 44.4411Z" fill="#89DCFF"/>
</g>
<defs>
<clipPath id="clip0_241_1611">
<rect width="110.922" height="110.922" fill="white" transform="translate(0 0.498291)"/>
</clipPath>
</defs>
</svg>