<svg xmlns="http://www.w3.org/2000/svg" width="104" height="128" viewBox="0 0 104 128" fill="none">
  <g clip-path="url(#clip0_2007_1110)">
    <path d="M93.2151 58.6888V15.3997C93.2151 11.8607 90.5396 8.98132 87.2514 8.98132H86.4594C86.109 7.4762 85.2555 6.13936 84.0608 5.25259C82.8676 4.36715 81.4281 3.9852 79.9914 4.16415C78.6831 1.60934 75.9326 0.315233 73.2638 1.06712L45.1789 8.97998H16.1643C13.1075 8.97998 10.5524 11.5081 10.2353 14.7213L9.43801 14.8415C6.71434 15.2542 4.63546 17.5926 4.34249 20.4893C1.2429 21.4322 -0.616581 24.8898 0.18875 28.262L10.2005 70.1647V113.454C10.2005 116.993 12.876 119.872 16.1656 119.872H16.9576C17.308 121.377 18.1615 122.714 19.3561 123.601C20.3581 124.343 21.5327 124.733 22.734 124.733C22.9641 124.733 23.1942 124.719 23.4256 124.689C24.4838 126.757 26.4864 127.997 28.6268 127.997C29.1312 127.997 29.6435 127.928 30.1532 127.785L58.2394 119.872H87.2527C90.3095 119.872 92.8646 117.344 93.1817 114.131L93.979 114.011C96.7027 113.598 98.7802 111.261 99.0745 108.363C102.174 107.42 104.034 103.962 103.228 100.59L93.2165 58.6874L93.2151 58.6888ZM1.48905 27.9535C0.880371 25.4067 2.14455 22.8064 4.34249 21.905C4.34784 21.9637 4.35453 22.0212 4.36122 22.0799L9.32832 60.7655L1.48905 27.9535ZM10.1992 19.3422V57.0394L5.68827 21.9103C5.64948 21.6112 5.63476 21.3134 5.64547 21.0236C5.72172 18.5462 7.40061 16.5029 9.63868 16.1637L10.2005 16.0795V19.3435L10.1992 19.3422ZM79.6931 5.55708L80.0436 5.50366C81.174 5.33272 82.3164 5.62386 83.2609 6.325C84.1224 6.9647 84.7605 7.90757 85.0762 8.98132H57.0742L79.6917 5.55708H79.6931ZM73.6263 2.35321C75.5273 1.81767 77.4898 2.65637 78.5734 4.37516L52.364 8.34294L73.625 2.35321H73.6263ZM23.7199 123.298L23.3694 123.351C22.2404 123.522 21.0966 123.231 20.1521 122.53C19.2906 121.89 18.6525 120.949 18.3368 119.874H46.3387L23.7213 123.298H23.7199ZM29.788 126.502C27.8884 127.037 25.9245 126.198 24.841 124.48L51.0503 120.512L29.788 126.503V126.502ZM91.8774 61.3518V113.455C91.8774 113.476 91.8774 113.496 91.8774 113.518L91.8573 113.916C91.6433 116.496 89.646 118.537 87.2514 118.537H16.1643C13.6132 118.537 11.537 116.257 11.537 113.454V15.3997C11.537 15.3797 11.537 15.3597 11.537 15.3396L11.5624 14.8869C11.7978 12.3308 13.7844 10.3168 16.1629 10.3168H87.2487C89.7998 10.3168 91.8747 12.5965 91.8747 15.3997V61.3518H91.8774ZM97.7689 107.831C97.6926 110.31 96.0137 112.353 93.7756 112.693L93.2138 112.777V71.8141L97.7247 106.946C97.7635 107.244 97.7782 107.541 97.7675 107.831H97.7689ZM99.0718 106.95C99.0665 106.891 99.0598 106.834 99.0531 106.775L94.086 68.088L101.925 100.901C102.534 103.448 101.27 106.048 99.0718 106.95Z" fill="#89DCFF"/>
    <path d="M92.557 7.86478C92.6079 7.87413 92.6587 7.87948 92.7095 7.87948C93.0868 7.87948 93.4239 7.61237 93.4975 7.22909L94.7014 0.952219C94.7844 0.518181 94.4994 0.0974969 94.0647 0.0146957C93.6286 -0.0681055 93.2085 0.216357 93.1256 0.650395L91.9216 6.92726C91.8386 7.3613 92.1236 7.78198 92.5584 7.86478H92.557Z" fill="#89DCFF"/>
    <path d="M95.8021 10.1551C95.9453 10.1551 96.0911 10.1164 96.2222 10.0363L101.675 6.68818C102.052 6.45581 102.17 5.963 101.938 5.58639C101.706 5.20978 101.212 5.09226 100.835 5.3233L95.3821 8.67141C95.0048 8.90378 94.8871 9.39658 95.1185 9.7732C95.2697 10.0189 95.5332 10.1551 95.8035 10.1551H95.8021Z" fill="#89DCFF"/>
    <path d="M103.166 12.2292L96.7692 12.4803C96.3264 12.4977 95.9813 12.8703 95.9987 13.3123C96.0161 13.7437 96.3719 14.0816 96.8 14.0816C96.8107 14.0816 96.8214 14.0816 96.8321 14.0816L103.229 13.8305C103.672 13.8131 104.017 13.4405 104 12.9985C103.982 12.5564 103.612 12.2145 103.166 12.2292Z" fill="#89DCFF"/>
    <path d="M26.8266 29.4465C26.8454 29.548 26.8694 29.6308 26.8975 29.6923C26.9256 29.7537 26.9724 29.8005 27.0353 29.8325C27.0982 29.8646 27.1851 29.8859 27.2948 29.8966C27.4045 29.9073 27.5517 29.9126 27.735 29.9126C27.9089 29.9126 28.0493 29.9073 28.1564 29.8966C28.262 29.8859 28.3463 29.8632 28.4092 29.8298C28.4707 29.7964 28.5162 29.7484 28.5443 29.6856C28.5724 29.6242 28.5951 29.544 28.6112 29.4465L29.5436 24.214H29.553L30.5389 29.4465C30.555 29.548 30.5764 29.6308 30.6058 29.6923C30.6339 29.7537 30.6807 29.8005 30.7436 29.8325C30.8065 29.8646 30.8934 29.8859 31.0031 29.8966C31.1128 29.9073 31.2573 29.9126 31.4392 29.9126C31.6011 29.9126 31.7349 29.9073 31.8392 29.8966C31.9436 29.8859 32.0292 29.8646 32.0961 29.8325C32.1629 29.8005 32.2124 29.7537 32.2459 29.6923C32.2793 29.6308 32.3047 29.5494 32.3248 29.4465L33.7388 22.2615C33.7669 22.1039 33.7843 21.9797 33.7883 21.8889C33.7937 21.7981 33.7776 21.7287 33.7428 21.6819C33.7081 21.6352 33.6519 21.6058 33.5743 21.5951C33.4967 21.5844 33.3883 21.5791 33.2479 21.5791C33.098 21.5791 32.983 21.5844 32.9 21.5951C32.8171 21.6058 32.7542 21.6245 32.7101 21.6525C32.6659 21.6806 32.6352 21.718 32.6191 21.7674C32.6031 21.8168 32.591 21.8742 32.5817 21.9424L31.5008 28.2473H31.4914L30.3302 21.9677C30.3182 21.8823 30.2994 21.8141 30.278 21.7634C30.2553 21.7126 30.2205 21.6726 30.171 21.6459C30.1215 21.6178 30.052 21.6005 29.961 21.5911C29.87 21.5831 29.7496 21.5778 29.5971 21.5778C29.454 21.5778 29.3403 21.5831 29.2547 21.5938C29.169 21.6045 29.1022 21.6232 29.0527 21.6512C29.0032 21.6793 28.9684 21.718 28.9483 21.7687C28.9282 21.8195 28.9109 21.8863 28.8988 21.9664L27.7751 28.2459H27.7697L26.6888 21.9223C26.6795 21.8422 26.6661 21.7794 26.6514 21.734C26.6353 21.6899 26.6059 21.6552 26.5604 21.6325C26.5163 21.6085 26.4507 21.5938 26.3624 21.5884C26.2755 21.5818 26.1564 21.5791 26.0079 21.5791C25.8461 21.5791 25.7203 21.5844 25.6293 21.5951C25.5384 21.6058 25.4742 21.6338 25.434 21.6819C25.3939 21.7287 25.3765 21.7954 25.3792 21.8823C25.3818 21.9691 25.3979 22.0893 25.4273 22.2428L26.8266 29.4465Z" fill="#89DCFF"/>
    <path d="M34.8082 29.8419C34.8564 29.8632 34.9206 29.8806 35.0009 29.8926C35.0811 29.9046 35.1828 29.9113 35.3032 29.9113C35.4236 29.9113 35.5279 29.9046 35.6082 29.8926C35.6871 29.8793 35.7513 29.8632 35.7982 29.8419C35.8463 29.8205 35.8784 29.7924 35.8985 29.7591C35.9172 29.7257 35.9266 29.6869 35.9266 29.6442V26.3068H38.2302V29.6442C38.2302 29.6869 38.2409 29.7257 38.261 29.7591C38.281 29.7938 38.3145 29.8205 38.3613 29.8419C38.4068 29.8632 38.471 29.8806 38.5513 29.8926C38.6315 29.9046 38.7345 29.9113 38.8576 29.9113C38.9807 29.9113 39.0783 29.9046 39.1573 29.8926C39.2362 29.8793 39.3004 29.8632 39.3472 29.8419C39.3941 29.8205 39.4288 29.7924 39.4489 29.7591C39.469 29.7257 39.4797 29.6869 39.4797 29.6442V21.8462C39.4797 21.8035 39.469 21.7661 39.4489 21.7313C39.4288 21.698 39.3941 21.6699 39.3472 21.6485C39.2991 21.6272 39.2362 21.6098 39.1573 21.5978C39.0783 21.5858 38.978 21.5791 38.8576 21.5791C38.7372 21.5791 38.6315 21.5858 38.5513 21.5978C38.471 21.6112 38.4068 21.6272 38.3613 21.6485C38.3158 21.6699 38.2824 21.698 38.261 21.7313C38.2409 21.7647 38.2302 21.8035 38.2302 21.8462V24.8778H35.9266V21.8462C35.9266 21.8035 35.9172 21.7661 35.8985 21.7313C35.8798 21.698 35.8463 21.6699 35.7982 21.6485C35.75 21.6272 35.6871 21.6098 35.6082 21.5978C35.5293 21.5858 35.4276 21.5791 35.3032 21.5791C35.1788 21.5791 35.0825 21.5858 35.0009 21.5978C34.9206 21.6112 34.855 21.6272 34.8082 21.6485C34.7601 21.6699 34.7266 21.698 34.7066 21.7313C34.6865 21.7647 34.6758 21.8035 34.6758 21.8462V29.6442C34.6758 29.6869 34.6865 29.7257 34.7066 29.7591C34.7266 29.7938 34.7614 29.8205 34.8082 29.8419Z" fill="#89DCFF"/>
    <path d="M40.9586 29.8419C41.0068 29.8632 41.071 29.8806 41.1512 29.8926C41.2315 29.9046 41.3332 29.9113 41.4536 29.9113C41.574 29.9113 41.6783 29.9046 41.7586 29.8926C41.8375 29.8793 41.9017 29.8632 41.9486 29.8419C41.9967 29.8205 42.0302 29.7924 42.0502 29.7591C42.0703 29.7257 42.081 29.6869 42.081 29.6442V21.8462C42.081 21.8035 42.0703 21.7661 42.0502 21.7313C42.0302 21.698 41.9954 21.6699 41.9486 21.6485C41.9004 21.6272 41.8375 21.6098 41.7586 21.5978C41.6797 21.5858 41.578 21.5791 41.4536 21.5791C41.3292 21.5791 41.2329 21.5858 41.1539 21.5978C41.075 21.6112 41.0108 21.6272 40.9613 21.6485C40.9118 21.6699 40.877 21.698 40.8569 21.7313C40.8369 21.7647 40.8262 21.8035 40.8262 21.8462V29.6442C40.8262 29.6869 40.8369 29.7257 40.8569 29.7591C40.877 29.7938 40.9118 29.8205 40.9586 29.8419Z" fill="#89DCFF"/>
    <path d="M42.8581 22.8331C42.8741 22.8865 42.8929 22.9252 42.9156 22.9506C42.9384 22.976 42.9651 22.9894 42.9959 22.9894H44.5383V29.6455C44.5383 29.6882 44.549 29.727 44.5691 29.7604C44.5892 29.7951 44.6239 29.8218 44.6708 29.8432C44.7176 29.8645 44.7831 29.8819 44.8634 29.8939C44.9437 29.9073 45.0453 29.9126 45.1657 29.9126C45.2861 29.9126 45.3878 29.9059 45.4681 29.8939C45.5483 29.8819 45.6139 29.8645 45.6607 29.8432C45.7089 29.8218 45.7423 29.7937 45.7624 29.7604C45.7824 29.727 45.7931 29.6882 45.7931 29.6455V22.9894H47.3356C47.3637 22.9894 47.3904 22.9773 47.4145 22.9506C47.4386 22.9252 47.4586 22.8852 47.4734 22.8331C47.4894 22.7797 47.5015 22.7102 47.5095 22.6221C47.5175 22.5353 47.5215 22.4298 47.5215 22.3056C47.5215 22.1814 47.5175 22.0692 47.5095 21.9797C47.5015 21.8902 47.4894 21.8195 47.4734 21.766C47.4573 21.7126 47.4372 21.6752 47.4145 21.6512C47.3904 21.6285 47.365 21.6165 47.3356 21.6165H42.9945C42.9624 21.6165 42.9357 21.6285 42.9143 21.6512C42.8915 21.6752 42.8728 21.7126 42.8568 21.766C42.8407 21.8195 42.8287 21.8902 42.8206 21.9797C42.8126 22.0692 42.8086 22.1774 42.8086 22.3056C42.8086 22.4338 42.8126 22.5339 42.8206 22.6221C42.8287 22.7089 42.8407 22.7797 42.8568 22.8331H42.8581Z" fill="#89DCFF"/>
    <path d="M48.6225 29.8739H51.7167C51.7448 29.8739 51.7716 29.8619 51.7957 29.8391C51.8198 29.8164 51.8398 29.7791 51.8545 29.727C51.8706 29.6762 51.8826 29.6094 51.8907 29.5266C51.8987 29.4438 51.9027 29.341 51.9027 29.2168C51.9027 29.0926 51.8987 28.9898 51.8907 28.907C51.8826 28.8242 51.8706 28.7574 51.8545 28.7066C51.8385 28.6559 51.8184 28.6185 51.7957 28.5945C51.7716 28.5704 51.7462 28.5597 51.7167 28.5597H49.4987V26.2306H51.3596C51.3877 26.2306 51.4144 26.2199 51.4385 26.1986C51.4626 26.1772 51.4826 26.1425 51.4974 26.0931C51.5134 26.0437 51.5254 25.9795 51.5335 25.8981C51.5415 25.8179 51.5455 25.7151 51.5455 25.5922C51.5455 25.4694 51.5415 25.3719 51.5335 25.2891C51.5254 25.2063 51.5134 25.1408 51.4974 25.0914C51.4813 25.042 51.4612 25.006 51.4385 24.9833C51.4144 24.9606 51.389 24.9485 51.3596 24.9485H49.4987V22.9319H51.698C51.7261 22.9319 51.7515 22.9199 51.7743 22.8972C51.797 22.8745 51.8157 22.8371 51.8318 22.785C51.8478 22.7343 51.8599 22.6675 51.8679 22.5847C51.8759 22.5019 51.88 22.4004 51.88 22.2815C51.88 22.1533 51.8759 22.0492 51.8679 21.965C51.8599 21.8822 51.8478 21.8141 51.8318 21.7607C51.8157 21.7073 51.797 21.6699 51.7743 21.6485C51.7515 21.6271 51.7261 21.6165 51.698 21.6165H48.6225C48.5182 21.6165 48.4299 21.6579 48.359 21.7407C48.2881 21.8235 48.252 21.9583 48.252 22.1453V29.3437C48.252 29.5306 48.2881 29.6655 48.359 29.7483C48.4299 29.8311 48.5182 29.8725 48.6225 29.8725V29.8739Z" fill="#89DCFF"/>
    <path d="M53.1349 29.8418C53.1831 29.8632 53.2473 29.8806 53.3275 29.8926C53.4078 29.9046 53.5095 29.9113 53.6299 29.9113C53.7503 29.9113 53.8546 29.9046 53.9349 29.8926C54.0138 29.8792 54.078 29.8632 54.1248 29.8418C54.173 29.8205 54.2064 29.7924 54.2265 29.759C54.2466 29.7256 54.2573 29.6869 54.2573 29.6442V27.0092H54.771C55.1777 27.0092 55.5308 26.9451 55.8305 26.8182C56.1301 26.69 56.383 26.5044 56.5903 26.26C56.7963 26.0156 56.9542 25.7138 57.0612 25.3572C57.1696 24.9993 57.2231 24.5893 57.2231 24.1259C57.2231 23.7893 57.1883 23.4862 57.1187 23.2164C57.0492 22.9466 56.9475 22.7102 56.8137 22.5086C56.68 22.3069 56.5194 22.14 56.3308 22.0078C56.1422 21.8755 55.9549 21.7861 55.7716 21.7367C55.587 21.6872 55.4292 21.6565 55.2981 21.6405C55.167 21.6258 55.0278 21.6178 54.882 21.6178H53.4305C53.3035 21.6178 53.2018 21.6672 53.1242 21.7674C53.0466 21.8675 53.0078 22.0171 53.0078 22.2174V29.6455C53.0078 29.6882 53.0172 29.727 53.0359 29.7604C53.0546 29.7951 53.0881 29.8218 53.1362 29.8432L53.1349 29.8418ZM54.2586 22.9119H54.7924C54.9221 22.9119 55.0479 22.9239 55.171 22.9466C55.2927 22.9707 55.4091 23.0268 55.5215 23.1162C55.6325 23.2057 55.7261 23.3433 55.8024 23.5316C55.8786 23.7185 55.9161 23.9576 55.9161 24.2461C55.9161 24.4584 55.8934 24.6561 55.8492 24.8364C55.8051 25.0167 55.7395 25.1729 55.6539 25.3025C55.5683 25.432 55.4572 25.5335 55.3235 25.6056C55.1884 25.6777 55.0211 25.7138 54.8218 25.7138H54.26V22.9119H54.2586Z" fill="#89DCFF"/>
    <path d="M56.9847 29.5934C56.9753 29.6829 56.986 29.7524 57.0181 29.8004C57.0503 29.8499 57.1064 29.8806 57.1894 29.8926C57.2723 29.9046 57.386 29.9113 57.5318 29.9113C57.6683 29.9113 57.778 29.9073 57.8623 29.8979C57.9466 29.8899 58.0108 29.8739 58.0576 29.8499C58.1031 29.8272 58.1365 29.7951 58.1579 29.7537C58.178 29.7136 58.1954 29.6629 58.2074 29.6041L58.598 27.9895H60.911L61.3244 29.6482C61.3378 29.703 61.3525 29.7484 61.3726 29.7817C61.3913 29.8165 61.4247 29.8418 61.4729 29.8619C61.521 29.8806 61.5893 29.8939 61.6802 29.9006C61.7712 29.9073 61.897 29.91 62.0588 29.91C62.2207 29.91 62.3371 29.9046 62.4254 29.8939C62.5137 29.8832 62.5765 29.8552 62.6113 29.8111C62.6461 29.7671 62.6595 29.6989 62.6501 29.6095C62.6407 29.52 62.6167 29.3985 62.5792 29.2462L60.6756 21.9263C60.6569 21.8462 60.6341 21.7821 60.606 21.7353C60.5793 21.6886 60.5351 21.6539 60.4722 21.6298C60.4107 21.6058 60.3238 21.5911 60.2127 21.5858C60.1017 21.5791 59.9519 21.5764 59.7646 21.5764C59.6027 21.5764 59.4729 21.5791 59.3739 21.5858C59.2749 21.5924 59.1987 21.6071 59.1425 21.6298C59.0877 21.6525 59.0462 21.6873 59.0208 21.7313C58.9954 21.7754 58.9726 21.8342 58.9539 21.9063L57.0543 29.2315C57.0168 29.3811 56.9927 29.5 56.9834 29.5894L56.9847 29.5934ZM59.7458 23.1937H59.7499L60.6207 26.7034H58.8736L59.7445 23.1937H59.7458Z" fill="#89DCFF"/>
    <path d="M63.5675 29.8418C63.6157 29.8632 63.6799 29.8806 63.7602 29.8926C63.8404 29.9059 63.9421 29.9113 64.0625 29.9113C64.1829 29.9113 64.2872 29.9046 64.3675 29.8926C64.4464 29.8792 64.5106 29.8632 64.5575 29.8418C64.6056 29.8205 64.6391 29.7924 64.6591 29.759C64.6792 29.7256 64.6899 29.6869 64.6899 29.6442V27.0092H65.2036C65.6103 27.0092 65.9634 26.9451 66.2631 26.8182C66.5628 26.69 66.8156 26.5044 67.0229 26.26C67.229 26.0156 67.3868 25.7138 67.4938 25.3572C67.6022 24.9993 67.6557 24.5893 67.6557 24.1259C67.6557 23.7893 67.6209 23.4862 67.5514 23.2164C67.4818 22.9466 67.3801 22.7102 67.2463 22.5086C67.1126 22.3069 66.952 22.14 66.7634 22.0078C66.5748 21.8755 66.3875 21.7861 66.2042 21.7367C66.0196 21.6872 65.8618 21.6565 65.7307 21.6405C65.5996 21.6258 65.4604 21.6178 65.3146 21.6178H63.8632C63.7361 21.6178 63.6344 21.6672 63.5568 21.7674C63.4792 21.8675 63.4404 22.0171 63.4404 22.2174V29.6455C63.4404 29.6882 63.4498 29.727 63.4685 29.7604C63.4873 29.7951 63.5207 29.8218 63.5689 29.8432L63.5675 29.8418ZM64.6912 22.9119H65.225C65.3548 22.9119 65.4805 22.9239 65.6036 22.9466C65.7253 22.9707 65.8417 23.0268 65.9541 23.1162C66.0651 23.2057 66.1588 23.3433 66.235 23.5316C66.3113 23.7185 66.3487 23.9576 66.3487 24.2461C66.3487 24.4584 66.326 24.6561 66.2818 24.8364C66.2377 25.0167 66.1721 25.1729 66.0865 25.3025C66.0009 25.432 65.8899 25.5335 65.7561 25.6056C65.621 25.6777 65.4538 25.7138 65.2544 25.7138H64.6926V22.9119H64.6912Z" fill="#89DCFF"/>
    <path d="M68.9989 29.8739H72.0931C72.1212 29.8739 72.1479 29.8619 72.172 29.8391C72.1961 29.8164 72.2162 29.7791 72.2309 29.727C72.2469 29.6762 72.259 29.6094 72.267 29.5266C72.275 29.4438 72.279 29.341 72.279 29.2168C72.279 29.0926 72.275 28.9898 72.267 28.907C72.259 28.8242 72.2469 28.7574 72.2309 28.7066C72.2148 28.6559 72.1948 28.6185 72.172 28.5945C72.1479 28.5704 72.1225 28.5597 72.0931 28.5597H69.8751V26.2306H71.7359C71.764 26.2306 71.7908 26.2199 71.8148 26.1986C71.8389 26.1772 71.859 26.1425 71.8737 26.0931C71.8897 26.0437 71.9018 25.9795 71.9098 25.8981C71.9178 25.8179 71.9219 25.7151 71.9219 25.5922C71.9219 25.4694 71.9178 25.3719 71.9098 25.2891C71.9018 25.2063 71.8897 25.1408 71.8737 25.0914C71.8576 25.042 71.8376 25.006 71.8148 24.9833C71.7908 24.9606 71.7653 24.9485 71.7359 24.9485H69.8751V22.9319H72.0744C72.1025 22.9319 72.1279 22.9199 72.1506 22.8972C72.172 22.8745 72.1921 22.8371 72.2081 22.785C72.2242 22.7343 72.2362 22.6675 72.2442 22.5847C72.2523 22.5019 72.2563 22.4004 72.2563 22.2815C72.2563 22.1533 72.2523 22.0492 72.2442 21.965C72.2362 21.8822 72.2242 21.8141 72.2081 21.7607C72.1921 21.7073 72.1734 21.6699 72.1506 21.6485C72.1279 21.6271 72.1025 21.6165 72.0744 21.6165H68.9989C68.8945 21.6165 68.8062 21.6579 68.734 21.7407C68.6617 21.8235 68.627 21.9583 68.627 22.1453V29.3437C68.627 29.5306 68.6631 29.6655 68.734 29.7483C68.8049 29.8311 68.8932 29.8725 68.9989 29.8725V29.8739Z" fill="#89DCFF"/>
    <path d="M73.5112 29.8418C73.5594 29.8632 73.6236 29.8806 73.7039 29.8926C73.7841 29.9059 73.8858 29.9113 74.0062 29.9113C74.1266 29.9113 74.231 29.9046 74.3112 29.8926C74.3901 29.8792 74.4544 29.8632 74.5012 29.8418C74.5493 29.8205 74.5828 29.7924 74.6028 29.759C74.6229 29.7256 74.6336 29.6869 74.6336 29.6442V26.4977H75.0242C75.158 26.4977 75.2744 26.5258 75.3761 26.5805C75.4777 26.6353 75.5674 26.7181 75.645 26.8263C75.7226 26.9344 75.7935 27.0693 75.8563 27.2309C75.9205 27.3925 75.9848 27.5782 76.0516 27.7865L76.6041 29.6308C76.6175 29.6816 76.6322 29.7256 76.6523 29.7617C76.671 29.7978 76.7045 29.8271 76.7499 29.8512C76.7954 29.8739 76.8583 29.8899 76.9386 29.8993C77.0175 29.9073 77.1245 29.9126 77.257 29.9126C77.4162 29.9126 77.5406 29.9086 77.6329 29.8993C77.7252 29.8912 77.7947 29.8752 77.8429 29.8552C77.8911 29.8338 77.9205 29.8071 77.9339 29.7751C77.9459 29.743 77.9526 29.7043 77.9526 29.6575C77.9526 29.6148 77.9446 29.556 77.9285 29.4826C77.9125 29.4078 77.8804 29.2903 77.8335 29.1287L77.3145 27.502C77.2543 27.3057 77.1927 27.1308 77.1285 26.9758C77.0657 26.8209 76.9974 26.682 76.9265 26.5605C76.8556 26.439 76.7794 26.3361 76.6978 26.2507C76.6175 26.1652 76.5306 26.0931 76.4383 26.0343C76.6282 25.9542 76.7981 25.8473 76.9479 25.7151C77.0964 25.5829 77.2222 25.428 77.3239 25.249C77.4255 25.0701 77.5018 24.8671 77.5553 24.64C77.6075 24.413 77.6342 24.1606 77.6342 23.8841C77.6342 23.5569 77.5981 23.2658 77.5245 23.0134C77.4509 22.7597 77.3466 22.5406 77.2075 22.3563C77.0697 22.1707 76.9011 22.0211 76.7031 21.9063C76.5051 21.7914 76.2817 21.7113 76.0343 21.6632C75.9486 21.6499 75.8537 21.6405 75.7493 21.6312C75.645 21.6231 75.5112 21.6178 75.3493 21.6178H73.7547C73.6504 21.6178 73.5621 21.6592 73.4898 21.742C73.4176 21.8248 73.3828 21.9597 73.3828 22.1467V29.6442C73.3828 29.6869 73.3922 29.7256 73.4109 29.759C73.4296 29.7938 73.4631 29.8205 73.5112 29.8418ZM74.635 22.8999H75.1968C75.34 22.8999 75.451 22.9066 75.5326 22.9186C75.6129 22.9319 75.6851 22.948 75.7493 22.9693C75.9593 23.0455 76.1092 23.1777 76.2015 23.3646C76.2938 23.5516 76.3393 23.7813 76.3393 24.0538C76.3393 24.2327 76.3165 24.3943 76.2724 24.5385C76.2282 24.6828 76.1613 24.8083 76.073 24.9125C75.9848 25.0167 75.8737 25.0981 75.7399 25.1555C75.6062 25.213 75.451 25.2424 75.2731 25.2424H74.635V22.8999Z" fill="#89DCFF"/>
    <path d="M25.579 40.9626H77.7516C78.1944 40.9626 78.5543 40.6033 78.5543 40.1613C78.5543 39.7192 78.1944 39.36 77.7516 39.36H25.579C25.1362 39.36 24.7764 39.7192 24.7764 40.1613C24.7764 40.6033 25.1362 40.9626 25.579 40.9626Z" fill="#89DCFF"/>
    <path d="M77.8193 50.5115H48.3017C47.8589 50.5115 47.499 50.8707 47.499 51.3128C47.499 51.7548 47.8589 52.1141 48.3017 52.1141H77.8193C78.2621 52.1141 78.622 51.7548 78.622 51.3128C78.622 50.8707 78.2621 50.5115 77.8193 50.5115Z" fill="#89DCFF"/>
    <path d="M25.6464 52.1141H37.9458C38.3886 52.1141 38.7484 51.7548 38.7484 51.3128C38.7484 50.8707 38.3886 50.5115 37.9458 50.5115H25.6464C25.2036 50.5115 24.8438 50.8707 24.8438 51.3128C24.8438 51.7548 25.2036 52.1141 25.6464 52.1141Z" fill="#89DCFF"/>
    <path d="M25.7128 63.2654H77.8854C78.3282 63.2654 78.688 62.9062 78.688 62.4641C78.688 62.0221 78.3282 61.6628 77.8854 61.6628H25.7128C25.27 61.6628 24.9102 62.0221 24.9102 62.4641C24.9102 62.9062 25.27 63.2654 25.7128 63.2654Z" fill="#89DCFF"/>
    <path d="M25.7802 74.4169H77.9528C78.3956 74.4169 78.7554 74.0577 78.7554 73.6156C78.7554 73.1736 78.3956 72.8143 77.9528 72.8143H25.7802C25.3374 72.8143 24.9775 73.1736 24.9775 73.6156C24.9775 74.0577 25.3374 74.4169 25.7802 74.4169Z" fill="#89DCFF"/>
    <path d="M78.0195 83.9658H65.4687C65.0259 83.9658 64.666 84.3251 64.666 84.7671C64.666 85.2092 65.0259 85.5684 65.4687 85.5684H78.0195C78.4623 85.5684 78.8222 85.2092 78.8222 84.7671C78.8222 84.3251 78.4623 83.9658 78.0195 83.9658Z" fill="#89DCFF"/>
    <path d="M25.8466 85.5684H52.7543C53.1971 85.5684 53.5569 85.2092 53.5569 84.7671C53.5569 84.3251 53.1971 83.9658 52.7543 83.9658H25.8466C25.4038 83.9658 25.0439 84.3251 25.0439 84.7671C25.0439 85.2092 25.4038 85.5684 25.8466 85.5684Z" fill="#89DCFF"/>
    <path d="M25.914 96.7198H58.8228C59.2656 96.7198 59.6255 96.3605 59.6255 95.9185C59.6255 95.4764 59.2656 95.1172 58.8228 95.1172H25.914C25.4712 95.1172 25.1113 95.4764 25.1113 95.9185C25.1113 96.3605 25.4712 96.7198 25.914 96.7198Z" fill="#89DCFF"/>
    <path d="M69.5244 106.269H25.9804C25.5376 106.269 25.1777 106.628 25.1777 107.07C25.1777 107.512 25.5376 107.871 25.9804 107.871H69.5244C69.9672 107.871 70.3271 107.512 70.3271 107.07C70.3271 106.628 69.9672 106.269 69.5244 106.269Z" fill="#89DCFF"/>
  </g>
  <defs>
    <clipPath id="clip0_2007_1110">
      <rect width="104" height="128" fill="white"/>
    </clipPath>
  </defs>
</svg>