<svg xmlns="http://www.w3.org/2000/svg" width="112" height="112" viewBox="0 0 112 112" fill="none">
<g clip-path="url(#clip0_241_1616)">
<path fill-rule="evenodd" clip-rule="evenodd" d="M56.3132 0.498291C25.6812 0.498291 0.849609 25.3299 0.849609 55.9619C0.849609 86.5938 25.6812 111.425 56.3132 111.425C86.9452 111.425 111.777 86.5938 111.777 55.9619C111.777 25.3299 86.9452 0.498291 56.3132 0.498291ZM69.1694 88.3846C69.0769 88.1753 68.7947 87.8201 68.639 87.5963C68.201 86.9588 67.6706 86.2775 67.2765 85.6401L66.7461 84.8907C66.6341 84.7496 66.566 84.6425 66.4736 84.5014C66.2838 84.2143 66.1086 83.9953 65.9237 83.7228C65.7436 83.4503 65.5539 83.2168 65.3738 82.9443L63.1938 79.8641C63.0235 79.6207 62.8435 79.3726 62.6634 79.1147L61.0041 76.7887C59.7486 74.9785 58.4397 73.2218 57.155 71.4409L51.9678 64.1563C51.8851 64.0396 51.7975 63.8838 51.6758 63.8109C51.5152 64.0979 51.2379 64.3267 51.0384 64.5894C50.9264 64.7403 50.8388 64.8327 50.7075 64.969L49.7245 66.1174C49.5347 66.3753 49.3012 66.6526 49.0725 66.8911L45.4716 71.1148C45.3596 71.2511 45.2477 71.3825 45.1455 71.4993L44.4837 72.2535C44.2745 72.5309 44.0653 72.7547 43.8366 73.0321L42.5227 74.56C42.3962 74.706 42.3524 74.7839 42.1967 74.9493L41.204 76.088C40.985 76.3459 40.8147 76.6038 40.5617 76.8665C40.0702 77.3775 39.0435 78.6183 38.5958 79.1682C38.4741 79.3142 38.3817 79.4066 38.2698 79.5575C38.1481 79.7278 38.0848 79.757 37.9291 79.9273C37.6956 80.1803 37.5301 80.4236 37.2819 80.701C37.1749 80.8227 37.0727 80.9443 36.9559 81.0854L34.0119 84.5404C33.321 85.2751 32.737 86.0975 32.046 86.842C31.7541 87.1583 30.956 88.0585 30.7517 88.3846H25.1362C25.2919 88.0439 25.6861 87.752 25.8953 87.4746L28.1434 84.8372C28.4549 84.5355 28.6301 84.2533 28.9074 83.9418C29.1751 83.6401 29.3794 83.3579 29.6471 83.0708L31.1556 81.3093C31.2869 81.139 31.4086 81.0076 31.54 80.8373L33.4329 78.6524C33.9584 78.0831 34.4061 77.4553 34.9365 76.886C35.0825 76.7303 35.1311 76.6135 35.3015 76.4432C35.4912 76.2583 35.5253 76.1853 35.6713 76.0052C35.9243 75.6987 36.1822 75.4505 36.4207 75.1439L37.17 74.2827C37.4279 73.9566 37.6323 73.7036 37.934 73.3824C38.1919 73.1051 38.3817 72.7888 38.6736 72.5065C38.9705 72.2243 39.1603 71.9372 39.4376 71.6112L43.1748 67.2414C43.4375 66.9592 43.6468 66.6186 43.9339 66.3412L49.16 60.2002L45.491 55.0422C45.0677 54.4534 44.7222 53.8889 44.2696 53.3196C43.9874 52.9644 43.7295 52.541 43.4667 52.1761L39.4084 46.4681C38.8294 45.675 38.333 44.9499 37.7734 44.1665L34.5131 39.607C33.9827 38.8527 33.4183 38.0693 32.8879 37.2956L26.3868 28.1522C26.2408 27.9527 26.1046 27.7581 25.9732 27.5683L24.7518 25.8506C24.2214 25.0769 23.6375 24.3469 23.1411 23.5684H43.4862C43.6565 23.6024 43.9387 24.1328 44.0507 24.2886C44.255 24.5708 44.3962 24.78 44.5859 25.0282C45.1261 25.7338 45.5932 26.5561 46.1479 27.2617C46.7221 27.9868 47.1358 28.7507 47.7197 29.4807L57.1355 42.8235C58.0552 44.2006 59.0771 45.4949 60.0017 46.8818C60.0844 47.0034 60.172 47.0959 60.2547 47.2078L60.6197 46.765C60.7316 46.6239 60.8727 46.5217 60.9846 46.3757L63.116 43.8551C63.3885 43.5534 63.6074 43.3149 63.841 43.0181L68.1183 38.0012C68.274 37.8309 68.3178 37.7433 68.4638 37.5875C69.1742 36.843 70.3178 35.3394 70.9552 34.6776L75.9381 28.8529C76.0841 28.6826 76.1133 28.5999 76.3079 28.415C76.4831 28.2447 76.5074 28.1766 76.6631 28.0111L79.8358 24.2642C80.1326 23.9674 80.2543 23.5635 80.702 23.5586C81.8358 23.5489 85.4221 23.5051 86.0498 23.5781L83.8601 26.1523C83.2129 26.8481 81.3686 29.1449 80.9501 29.5488L78.4052 32.5512C78.2689 32.7069 78.1959 32.7847 78.05 32.9502L75.8602 35.5C75.7872 35.5876 75.7532 35.6557 75.6753 35.7482C74.9113 36.6727 73.6316 38.0596 72.9649 38.916L70.0647 42.3222C69.5392 42.8916 69.1499 43.422 68.6195 44.0059C67.8458 44.8575 67.1986 45.7139 66.4346 46.5606L64.2449 49.1104C63.7777 49.67 63.2425 50.2345 62.824 50.8282C62.9408 51.1007 63.4615 51.7478 63.661 52.0349C63.9335 52.434 64.2206 52.8038 64.4931 53.1931L79.5001 74.3119C80.3078 75.4992 81.1837 76.6427 82.0012 77.83L86.1568 83.6791C87.2225 85.2557 88.4439 86.7739 89.4755 88.3797H69.1645L69.1694 88.3846Z" fill="#89DCFF"/>
<path fill-rule="evenodd" clip-rule="evenodd" d="M78.2296 80.5696C77.8159 79.9905 77.4267 79.4212 76.9887 78.8227C76.76 78.5064 76.58 78.2387 76.3659 77.9273L74.4924 75.2996C74.0399 74.7351 73.6944 74.0977 73.2321 73.5235C72.7844 72.9688 72.4049 72.341 71.9961 71.7717C71.7771 71.47 71.5679 71.1926 71.3587 70.8958L68.2541 66.5066C68.0546 66.2195 67.8307 65.9324 67.6361 65.655C66.6386 64.2244 65.4415 62.6283 64.5072 61.2464C63.5486 59.8303 62.3905 58.2927 61.3783 56.8377C61.1691 56.536 60.9452 56.244 60.7409 55.9569L59.5 54.21C59.281 53.8889 59.1156 53.6456 58.8966 53.3439L55.758 48.9498C55.3347 48.361 54.9746 47.8014 54.5172 47.2029C54.0695 46.6141 53.7142 45.9815 53.2617 45.4219C52.6583 44.6725 51.4321 42.7796 50.7654 41.8988C49.8117 40.6434 48.6535 38.9159 47.6657 37.5583L45.1645 34.0401C44.6925 33.3637 40.8727 27.9186 40.7413 27.8894H31.958L37.5394 35.7822C37.6416 35.933 37.7584 36.0693 37.8606 36.2153C40.1428 39.4999 42.6926 43.0326 45.0088 46.2783L50.634 54.2149C51.2325 55.0519 52.668 56.9983 53.1352 57.7331C53.5196 58.3316 53.9965 58.8717 54.3809 59.4751L58.7312 65.6064C58.9404 65.9081 59.1448 66.1806 59.3686 66.4823L61.8698 70.0005C63.4999 72.341 65.2517 74.7059 66.8478 77.0222L68.0886 78.7691C68.293 79.0611 68.5217 79.3531 68.7261 79.6499L71.2273 83.1681C71.3295 83.3189 71.4414 83.4746 71.5387 83.6157C71.6604 83.7909 71.7333 83.9126 71.8453 84.0683H80.7015C80.6285 83.9369 80.5069 83.7715 80.4242 83.6498L78.2296 80.5842V80.5696Z" fill="#89DCFF"/>
</g>
<defs>
<clipPath id="clip0_241_1616">
<rect width="110.927" height="110.927" fill="white" transform="translate(0.849609 0.498291)"/>
</clipPath>
</defs>
</svg>